<?xml version="1.0" encoding="UTF-8"?>
<svg xmlns="http://www.w3.org/2000/svg" viewBox="0 0 640 620" role="img" aria-label="The Summit: mountain trail with stops 1 through 10">
  <ellipse cx="320" cy="568" rx="205" ry="26" fill="#8a97a8" opacity="0.25"/>

  <polygon points="320,78 100,530 245,515" fill="#B8C7D4"/>
  <polygon points="320,78 245,515 320,505 285,310" fill="#8FA6BB"/>
  <polygon points="320,78 285,310 320,505 365,512 350,290" fill="#5E7A94"/>
  <polygon points="320,78 350,290 365,512 540,540" fill="#1F3A5F"/>
  <polygon points="320,78 450,330 540,540" fill="#2A4A6B"/>

  <path
    d="M148 528
       C 195 500, 245 478, 295 465
       C 345 452, 400 445, 445 415
       C 485 388, 505 348, 490 312
       C 474 274, 420 260, 365 258
       C 312 256, 268 242, 248 208
       C 228 174, 250 142, 285 118
       C 305 102, 315 90, 320 78"
    fill="none"
    stroke="#1E88E5"
    stroke-width="4.5"
    stroke-linecap="round"
    stroke-linejoin="round"
    stroke-dasharray="12 10"
  />

  <circle cx="148" cy="528" r="9" fill="#1E88E5"/>

  <g font-family="ui-sans-serif, system-ui, sans-serif" font-size="15" font-weight="700" text-anchor="middle" dominant-baseline="central">
    <circle cx="200" cy="498" r="16" fill="#1E88E5"/><text x="200" y="499" fill="#FFFFFF">1</text>
    <circle cx="258" cy="474" r="16" fill="#1E88E5"/><text x="258" y="475" fill="#FFFFFF">2</text>
    <circle cx="320" cy="456" r="16" fill="#1E88E5"/><text x="320" y="457" fill="#FFFFFF">3</text>
    <circle cx="385" cy="438" r="16" fill="#1E88E5"/><text x="385" y="439" fill="#FFFFFF">4</text>
    <circle cx="455" cy="385" r="16" fill="#1E88E5"/><text x="455" y="386" fill="#FFFFFF">5</text>
    <circle cx="482" cy="325" r="16" fill="#1E88E5"/><text x="482" y="326" fill="#FFFFFF">6</text>
    <circle cx="400" cy="262" r="16" fill="#1E88E5"/><text x="400" y="263" fill="#FFFFFF">7</text>
    <circle cx="290" cy="238" r="16" fill="#1E88E5"/><text x="290" y="239" fill="#FFFFFF">8</text>
    <circle cx="268" cy="148" r="16" fill="#1E88E5"/><text x="268" y="149" fill="#FFFFFF">9</text>
    <circle cx="320" cy="90" r="16" fill="#1E88E5"/><text x="320" y="91" fill="#FFFFFF">10</text>
  </g>

  <line x1="320" y1="78" x2="320" y2="32" stroke="#334155" stroke-width="3" stroke-linecap="round"/>
  <polygon points="320,32 365,48 320,64" fill="#1E88E5"/>
</svg>
